<?xml version="1.0" standalone="no"?>
<!DOCTYPE svg PUBLIC "-//W3C//DTD SVG 20010904//EN"
 "http://www.w3.org/TR/2001/REC-SVG-20010904/DTD/svg10.dtd">
<svg version="1.0" xmlns="http://www.w3.org/2000/svg"
 width="2100.000000pt" height="2100.000000pt" viewBox="0 0 2100.000000 2100.000000"
 preserveAspectRatio="xMidYMid meet">
<metadata>
Created by potrace 1.14, written by Peter Selinger 2001-2017
</metadata>
<g transform="translate(0.000000,2100.000000) scale(0.100000,-0.100000)"
fill="#000000" stroke="none">
<path d="M10297 20934 c-1 -1 -85 -5 -187 -8 -102 -4 -210 -9 -240 -11 -30 -3
-86 -6 -125 -9 -90 -6 -267 -23 -330 -31 -16 -2 -57 -7 -90 -10 -33 -4 -71 -8
-85 -10 -14 -2 -51 -7 -83 -10 -32 -4 -68 -8 -80 -11 -12 -2 -39 -6 -62 -9
-50 -7 -150 -23 -190 -30 -16 -3 -55 -10 -85 -15 -55 -9 -89 -15 -145 -25
-260 -46 -708 -155 -1025 -250 -488 -146 -878 -292 -1380 -517 -353 -158 -872
-441 -1235 -673 -226 -145 -691 -468 -725 -505 -3 -3 -23 -18 -45 -35 -51 -38
-275 -215 -296 -235 -8 -8 -40 -35 -70 -60 -224 -187 -383 -334 -644 -595
-240 -239 -330 -335 -495 -525 -36 -41 -73 -84 -83 -95 -11 -11 -81 -96 -156
-190 -369 -456 -655 -873 -949 -1380 -256 -443 -530 -1023 -708 -1498 -88
-233 -217 -617 -249 -737 -2 -8 -16 -55 -30 -105 -44 -157 -148 -574 -171
-690 -2 -11 -8 -42 -14 -70 -5 -27 -11 -61 -14 -75 -2 -14 -7 -36 -10 -50 -4
-14 -8 -38 -10 -55 -3 -16 -7 -40 -9 -51 -5 -19 -12 -60 -22 -119 -3 -22 -9
-61 -26 -170 -6 -38 -13 -77 -14 -85 -1 -8 -6 -44 -10 -80 -4 -36 -9 -72 -10
-80 -1 -8 -6 -44 -10 -80 -3 -36 -8 -76 -10 -90 -8 -54 -21 -199 -30 -320 -3
-47 -8 -103 -10 -125 -26 -240 -26 -1173 0 -1415 2 -19 7 -80 10 -135 4 -55 8
-111 10 -125 2 -14 6 -54 9 -90 4 -36 9 -81 11 -100 3 -19 7 -62 11 -95 3 -33
7 -71 9 -85 3 -14 13 -88 25 -165 11 -77 22 -151 24 -165 2 -14 10 -57 16 -97
6 -39 13 -77 14 -85 2 -7 6 -31 10 -53 56 -290 89 -442 142 -648 2 -9 6 -25 8
-35 13 -54 50 -191 76 -282 17 -58 32 -109 34 -115 39 -157 224 -681 338 -960
l53 -130 50 -1 c28 -1 79 2 115 6 36 5 101 11 145 14 44 4 91 9 105 11 14 2
52 7 85 10 33 3 94 10 135 15 41 5 98 12 125 15 28 3 64 8 80 10 17 3 47 7 68
10 102 14 259 38 357 55 30 5 71 12 90 15 74 12 315 57 321 60 3 2 28 7 55 11
27 3 59 10 71 15 13 5 23 7 23 4 0 -2 15 1 33 6 17 5 48 12 67 15 19 3 60 12
92 20 46 12 175 40 273 59 216 44 737 175 1000 252 189 55 645 204 803 262
119 44 342 130 377 146 17 8 116 51 220 96 350 150 726 342 1100 562 238 140
770 458 890 532 185 114 375 230 411 250 41 24 462 283 689 425 88 55 169 104
180 110 11 5 63 36 115 69 52 33 118 74 145 90 28 16 86 53 130 81 44 28 88
53 98 56 9 4 17 10 17 15 0 5 4 9 9 9 5 0 65 34 133 77 68 42 139 85 159 97
20 12 139 84 265 160 126 77 288 175 359 218 72 43 137 83 145 89 8 5 23 12
33 15 9 4 17 10 17 15 0 5 4 9 9 9 7 0 82 42 179 101 108 66 405 239 410 239
3 0 13 6 21 14 9 7 43 29 77 47 56 32 401 230 434 250 72 43 669 370 855 469
55 29 129 69 165 88 80 43 576 291 645 322 155 70 211 98 223 112 7 9 42 35
77 58 172 112 370 126 533 38 107 -58 162 -103 229 -193 77 -102 162 -312 197
-485 44 -222 115 -527 142 -617 89 -293 309 -673 569 -981 122 -144 342 -359
535 -519 325 -271 846 -612 1370 -896 41 -22 89 -49 105 -58 17 -10 49 -28 73
-40 24 -12 98 -52 165 -89 67 -36 163 -88 212 -115 50 -26 165 -90 256 -141
256 -144 440 -225 774 -344 148 -52 424 -136 545 -165 45 -11 230 -55 260 -61
19 -4 37 -8 40 -9 3 -1 25 -5 50 -9 25 -5 54 -10 65 -12 56 -12 175 -34 210
-39 39 -5 125 -20 175 -30 37 -7 132 -15 252 -21 l106 -4 31 97 c82 267 218
792 245 953 2 14 11 59 20 100 19 96 37 197 42 235 2 17 10 66 19 110 16 87
41 257 50 345 4 30 8 66 10 80 4 27 23 199 30 265 5 49 17 205 20 260 1 22 6
99 11 170 11 161 11 959 1 1115 -15 223 -17 246 -23 320 -16 198 -23 262 -44
430 -11 81 -13 100 -25 188 -3 20 -7 48 -10 62 -2 14 -7 43 -10 65 -21 152
-85 485 -131 690 -37 166 -114 467 -124 484 -4 9 -8 21 -9 26 -3 28 -14 81
-20 90 -3 6 -6 15 -7 20 -7 38 -153 490 -174 540 -5 11 -30 79 -55 150 -26 72
-53 144 -60 160 -7 17 -18 46 -26 65 -101 274 -369 843 -551 1170 -41 74 -88
158 -103 185 -49 89 -50 87 -50 -73 -1 -176 -11 -282 -41 -407 -8 -33 -16 -67
-18 -75 -74 -309 -269 -651 -509 -892 -119 -120 -201 -190 -297 -253 -25 -17
-47 -32 -50 -35 -12 -12 -112 -69 -195 -112 -202 -103 -454 -182 -650 -203
-27 -3 -68 -8 -90 -11 -45 -5 -274 -6 -320 0 -16 2 -57 7 -90 10 -68 8 -69 8
-150 25 -64 13 -180 45 -230 63 -69 24 -233 93 -271 114 -23 13 -44 21 -47 17
-17 -17 -199 91 -332 196 -249 199 -428 416 -563 686 -53 106 -121 281 -137
355 -23 102 -45 213 -49 245 -30 235 -25 446 15 665 18 97 19 104 40 180 72
261 206 523 372 725 149 183 339 349 552 483 58 36 292 144 372 171 414 141
882 139 1307 -4 39 -13 71 -23 73 -22 6 7 -368 388 -521 531 -66 61 -129 120
-140 131 -93 88 -449 391 -527 450 -15 11 -76 58 -136 105 -383 297 -939 664
-1288 850 -44 23 -84 46 -90 50 -5 4 -102 55 -215 113 -459 236 -1004 467
-1435 607 -71 23 -139 46 -150 51 -27 12 -367 111 -513 150 -109 29 -159 41
-222 55 -14 3 -43 10 -65 16 -52 13 -110 26 -335 72 -14 3 -36 7 -50 10 -55
12 -127 25 -165 31 -22 3 -67 10 -100 16 -33 6 -69 12 -80 14 -60 10 -166 25
-205 30 -25 3 -52 8 -60 10 -8 2 -42 6 -75 10 -83 8 -126 13 -230 24 -195 22
-309 30 -615 47 -105 5 -708 13 -713 8z"/>
<path d="M13510 9911 c-36 -26 -110 -78 -165 -116 -55 -38 -138 -95 -185 -128
-47 -32 -128 -88 -180 -123 -52 -36 -165 -112 -250 -171 -85 -58 -315 -213
-510 -344 -195 -132 -362 -243 -370 -249 -204 -139 -1362 -892 -1572 -1021
-24 -15 -122 -76 -218 -137 -96 -61 -319 -199 -495 -307 -176 -109 -331 -205
-345 -214 -24 -16 -153 -94 -224 -136 -19 -11 -194 -115 -388 -231 -194 -116
-407 -243 -473 -282 -66 -38 -136 -79 -155 -90 -19 -12 -46 -27 -60 -35 -14
-8 -132 -75 -262 -150 -131 -76 -259 -149 -285 -164 -26 -14 -115 -64 -198
-111 -82 -47 -206 -112 -275 -145 -178 -85 -311 -147 -316 -147 -2 0 -33 -14
-70 -30 -90 -42 -272 -117 -434 -180 -74 -29 -144 -56 -155 -61 -80 -34 -658
-233 -708 -243 -7 -2 -19 -6 -27 -9 -18 -7 -154 -47 -195 -57 -16 -5 -64 -18
-105 -30 -72 -21 -286 -78 -322 -86 -10 -2 -26 -6 -35 -8 -277 -70 -677 -154
-948 -200 -16 -3 -55 -10 -85 -16 -30 -6 -73 -13 -95 -16 -22 -2 -78 -11 -125
-19 -47 -8 -105 -17 -130 -20 -46 -6 -105 -14 -150 -20 -14 -2 -47 -7 -75 -10
-27 -3 -63 -7 -80 -10 -16 -2 -57 -7 -90 -10 -33 -4 -73 -8 -90 -10 -62 -8
-122 -15 -190 -20 -38 -3 -88 -8 -110 -10 -69 -7 -309 -27 -343 -28 -7 0 -11
-6 -8 -13 18 -48 385 -525 560 -729 33 -38 67 -78 76 -89 8 -10 26 -30 40 -46
14 -15 54 -60 90 -101 142 -161 460 -486 631 -644 129 -120 185 -171 253 -230
38 -33 74 -65 80 -70 6 -6 38 -33 71 -60 33 -28 62 -52 65 -56 31 -34 511
-402 640 -490 36 -24 67 -46 70 -49 11 -11 309 -210 315 -210 3 0 11 -5 18
-10 35 -29 327 -206 510 -309 20 -12 54 -31 75 -42 209 -119 651 -335 927
-454 47 -20 229 -95 245 -100 3 -1 19 -7 35 -14 204 -86 675 -245 980 -332 39
-10 84 -24 100 -29 40 -12 402 -101 434 -106 14 -3 42 -9 61 -14 19 -5 46 -11
60 -14 14 -3 36 -7 50 -10 14 -4 75 -15 135 -26 61 -11 130 -25 155 -30 25 -5
61 -12 80 -15 19 -3 46 -7 60 -10 14 -2 43 -7 65 -10 22 -3 67 -10 100 -15 33
-5 80 -12 105 -15 25 -3 59 -7 75 -9 174 -24 232 -31 355 -41 109 -10 161 -14
255 -20 50 -4 107 -8 127 -10 211 -22 959 -22 1258 0 19 1 82 5 140 9 58 4
123 9 145 11 22 2 69 7 105 10 36 3 81 8 100 10 19 3 107 13 195 24 88 11 178
23 200 26 22 4 51 8 65 10 136 20 474 82 605 110 11 3 31 7 45 10 29 6 37 8
150 34 261 59 607 157 906 256 189 63 440 153 501 181 17 8 33 14 36 14 8 0
307 125 407 170 188 84 232 105 400 189 285 142 517 269 760 415 135 82 498
320 635 417 150 105 486 361 523 396 8 7 30 26 50 41 21 15 42 32 47 38 6 6
35 30 65 55 30 24 62 51 70 59 9 8 43 38 75 65 32 28 63 55 70 60 193 176 277
256 460 440 202 202 389 402 540 580 33 39 62 72 65 75 3 3 25 30 50 60 25 30
47 57 50 60 3 3 67 84 142 180 149 193 325 436 437 605 40 61 82 122 92 137
11 15 19 30 19 33 0 3 5 11 10 18 17 19 110 166 110 173 0 3 9 19 21 36 12 16
20 30 18 32 -2 1 -51 12 -109 25 -211 46 -562 154 -715 220 -11 5 -83 35 -160
67 -497 206 -1089 556 -1720 1019 -71 52 -148 107 -170 123 -1239 879 -1782
1354 -2271 1987 -104 135 -344 490 -344 509 0 2 -28 52 -62 112 -52 92 -125
238 -191 384 -13 29 -43 103 -112 275 -5 11 -9 22 -10 25 -8 33 -28 80 -33 79
-4 0 -36 -22 -72 -48z"/>
</g>
</svg>
