<?xml version="1.0" standalone="no"?>
<!DOCTYPE svg PUBLIC "-//W3C//DTD SVG 20010904//EN"
 "http://www.w3.org/TR/2001/REC-SVG-20010904/DTD/svg10.dtd">
<svg version="1.0" xmlns="http://www.w3.org/2000/svg"
 width="2100.000000pt" height="2100.000000pt" viewBox="0 0 2100.000000 2100.000000"
 preserveAspectRatio="xMidYMid meet">
<metadata>
Created by potrace 1.14, written by Peter Selinger 2001-2017
</metadata>
<g transform="translate(0.000000,2100.000000) scale(0.100000,-0.100000)"
fill="#000000" stroke="none">
<path d="M10297 20934 c-1 -1 -85 -5 -187 -8 -102 -4 -210 -9 -240 -11 -30 -3
-86 -6 -125 -9 -90 -6 -267 -23 -330 -31 -16 -2 -57 -7 -90 -10 -33 -4 -71 -8
-85 -10 -14 -2 -51 -7 -83 -10 -32 -4 -68 -8 -80 -11 -12 -2 -39 -6 -62 -9
-50 -7 -150 -23 -190 -30 -16 -3 -55 -10 -85 -15 -55 -9 -89 -15 -145 -25
-126 -23 -475 -101 -672 -151 -483 -123 -1162 -357 -1547 -534 -37 -16 -68
-30 -70 -30 -20 0 -546 -259 -714 -352 -81 -44 -165 -91 -187 -103 -213 -117
-568 -341 -825 -520 -90 -63 -342 -246 -350 -255 -3 -3 -23 -18 -45 -35 -51
-38 -275 -215 -296 -235 -8 -8 -40 -35 -70 -60 -94 -79 -221 -190 -324 -284
-130 -118 -548 -536 -650 -650 -44 -49 -84 -94 -90 -100 -5 -6 -39 -45 -75
-86 -36 -41 -73 -84 -83 -95 -44 -48 -302 -372 -399 -500 -645 -858 -1139
-1783 -1504 -2815 -37 -104 -145 -437 -159 -490 -2 -8 -16 -55 -30 -105 -44
-157 -148 -574 -171 -690 -2 -11 -8 -42 -14 -70 -5 -27 -11 -61 -14 -75 -2
-14 -7 -36 -10 -50 -4 -14 -8 -38 -10 -55 -3 -16 -7 -40 -9 -51 -5 -19 -12
-60 -22 -119 -3 -22 -9 -61 -26 -170 -6 -38 -13 -77 -14 -85 -1 -8 -6 -44 -10
-80 -4 -36 -9 -72 -10 -80 -1 -8 -6 -44 -10 -80 -3 -36 -8 -76 -10 -90 -8 -54
-21 -199 -30 -320 -3 -47 -8 -103 -10 -125 -26 -239 -26 -1170 0 -1415 2 -19
6 -80 10 -135 4 -55 8 -113 11 -130 2 -16 6 -59 9 -95 3 -36 8 -81 10 -100 3
-19 7 -57 10 -85 3 -27 8 -61 10 -75 2 -14 6 -43 9 -65 7 -50 35 -241 40 -275
3 -14 10 -57 16 -97 6 -39 13 -77 14 -85 2 -7 6 -31 10 -53 51 -268 83 -416
123 -570 8 -33 18 -77 23 -98 9 -48 24 -64 42 -49 7 6 74 47 148 91 74 45 142
85 150 91 8 5 44 27 80 48 36 21 126 76 200 122 163 100 379 232 458 280 31
19 118 72 192 118 74 46 144 89 155 95 11 7 42 26 70 43 27 17 151 94 275 169
124 76 248 152 275 170 55 35 293 181 334 205 14 9 37 23 51 32 14 9 120 73
235 143 116 70 262 160 325 199 63 39 117 72 120 74 4 1 114 67 246 147 444
267 1144 678 1329 780 28 15 55 31 60 35 6 4 35 21 65 37 30 17 168 93 305
170 685 383 1476 790 1655 850 25 8 59 21 75 28 41 18 182 62 225 70 19 4 40
11 46 16 18 14 235 35 288 27 28 -4 87 -19 133 -33 67 -22 94 -37 137 -75 95
-88 153 -193 170 -310 3 -19 10 -69 16 -110 17 -121 88 -410 111 -452 5 -10 9
-24 9 -32 0 -34 140 -429 196 -556 9 -19 48 -100 86 -180 39 -80 82 -169 96
-199 14 -29 54 -94 89 -144 35 -49 102 -153 148 -231 74 -124 249 -398 290
-452 119 -158 236 -297 356 -425 24 -26 53 -57 63 -70 129 -157 348 -402 460
-515 78 -78 186 -188 242 -245 115 -120 224 -223 308 -294 32 -28 64 -55 70
-60 16 -16 261 -214 325 -263 154 -120 496 -349 601 -402 14 -7 46 -32 71 -54
26 -24 85 -59 135 -81 49 -21 154 -70 234 -108 80 -38 197 -93 260 -122 63
-29 180 -84 260 -123 80 -38 206 -91 280 -117 248 -87 362 -125 384 -129 12
-2 54 -14 94 -25 109 -33 490 -120 547 -126 28 -2 77 -7 110 -10 33 -3 87 -8
120 -11 33 -3 80 -7 105 -9 315 -27 1255 -27 1725 0 39 2 117 7 175 10 100 5
156 9 280 20 30 2 89 7 130 10 41 3 91 7 110 10 19 2 64 7 100 10 177 16 303
30 485 55 39 5 90 12 115 15 49 7 358 53 403 60 15 3 42 7 60 10 17 3 39 8 47
10 8 2 35 7 60 10 25 3 52 8 60 10 8 2 33 6 55 10 42 6 418 83 540 110 63 14
126 28 194 41 12 3 53 12 90 20 36 9 77 18 91 20 46 9 364 83 445 104 44 12
105 27 135 34 48 11 270 73 533 147 87 25 84 22 129 143 230 623 402 1244 498
1791 5 33 12 71 15 85 3 14 8 41 11 60 3 19 7 44 9 55 13 80 51 348 60 435 4
36 8 72 10 80 1 8 6 49 10 90 3 41 8 86 10 100 2 14 7 68 10 120 4 52 9 113
11 135 14 178 19 360 18 740 0 392 -3 520 -18 715 -3 30 -7 98 -11 150 -3 52
-8 106 -10 120 -2 14 -6 54 -10 90 -6 63 -32 279 -40 330 -2 14 -6 48 -10 75
-3 28 -8 57 -10 65 -2 8 -6 35 -9 60 -5 37 -35 214 -61 355 -24 130 -95 451
-126 570 -11 44 -27 107 -35 140 -18 71 -49 182 -68 245 -8 25 -31 99 -51 165
-38 126 -111 346 -125 380 -5 11 -41 108 -80 215 -40 107 -80 213 -90 235 -10
22 -41 96 -70 165 -50 118 -72 167 -142 320 -43 93 -228 464 -268 535 -204
371 -455 777 -628 1018 -12 18 -30 43 -40 57 -82 119 -272 373 -347 465 -18
22 -77 94 -131 160 -54 66 -103 125 -108 131 -6 6 -36 40 -66 75 -59 68 -225
252 -275 304 -228 239 -445 450 -670 651 -90 80 -376 322 -426 359 -15 11 -76
58 -136 105 -809 628 -1756 1154 -2726 1514 -138 51 -414 147 -437 151 -3 1
-57 18 -120 38 -216 67 -486 142 -630 173 -14 3 -43 10 -65 16 -52 13 -110 26
-335 72 -14 3 -36 7 -50 10 -63 14 -129 26 -170 31 -25 3 -52 8 -60 10 -8 2
-30 7 -47 10 -18 3 -47 7 -65 10 -67 12 -376 54 -438 60 -36 3 -99 10 -140 15
-41 5 -106 11 -145 14 -38 4 -95 8 -125 11 -53 5 -105 8 -340 21 -95 5 -708
12 -713 8z m4622 -4578 c68 -4 127 -8 130 -10 3 -2 32 -7 64 -10 32 -4 64 -9
70 -11 7 -3 23 -6 37 -9 55 -10 129 -28 210 -53 590 -179 1070 -581 1339
-1119 108 -217 179 -465 210 -729 10 -83 7 -470 -4 -540 -102 -652 -449 -1188
-996 -1542 -87 -56 -307 -173 -326 -173 -4 0 -20 -7 -35 -14 -80 -42 -382
-125 -508 -140 -457 -55 -864 11 -1249 203 -31 15 -73 31 -94 34 -112 17 -467
290 -640 492 -95 110 -96 113 -175 230 -176 262 -303 600 -336 893 -3 28 -9
76 -12 104 -17 152 -2 445 31 608 20 95 35 160 43 180 5 14 10 30 11 35 19
112 139 384 247 557 112 179 311 400 491 545 261 208 559 351 881 423 140 31
190 37 352 46 63 4 117 8 119 10 2 2 7 2 10 0 3 -2 62 -7 130 -10z m1699 -299
c4 -21 -27 -35 -38 -17 -12 19 0 42 19 38 9 -2 17 -11 19 -21z"/>
<path d="M7270 9527 c-25 -19 -106 -75 -180 -126 -74 -51 -202 -139 -285 -196
-141 -98 -254 -174 -660 -451 -208 -141 -750 -505 -773 -519 -9 -6 -89 -58
-177 -116 -301 -200 -1007 -659 -1089 -709 -21 -13 -172 -109 -406 -258 -30
-20 -80 -51 -110 -70 -30 -19 -71 -45 -90 -57 -47 -31 -438 -274 -472 -294
-15 -9 -148 -90 -295 -181 -234 -144 -422 -258 -511 -311 -287 -170 -413 -246
-442 -264 -19 -12 -137 -82 -262 -155 l-228 -133 61 -116 c235 -444 640 -1068
935 -1441 124 -155 240 -299 288 -355 33 -38 67 -78 76 -89 8 -10 24 -28 35
-40 11 -12 54 -60 95 -106 224 -254 602 -628 885 -876 286 -251 767 -626 934
-729 9 -5 18 -12 21 -15 13 -15 280 -190 289 -190 5 0 11 -4 13 -8 5 -11 332
-211 511 -311 20 -12 54 -31 75 -42 209 -119 651 -335 927 -454 47 -20 229
-95 245 -100 3 -1 19 -7 35 -14 49 -21 319 -122 335 -126 8 -2 76 -25 150 -51
143 -49 412 -134 444 -140 11 -2 42 -10 70 -19 28 -9 65 -20 81 -25 41 -12
402 -101 434 -106 14 -3 42 -9 61 -14 19 -5 46 -11 60 -14 14 -3 36 -7 50 -10
14 -4 75 -15 135 -26 61 -11 130 -25 155 -30 25 -5 61 -12 80 -15 19 -3 46 -7
60 -10 14 -2 43 -7 65 -10 22 -3 67 -10 100 -15 33 -5 83 -12 110 -15 28 -3
61 -8 75 -10 14 -2 45 -7 70 -10 25 -3 63 -7 85 -10 72 -9 185 -20 305 -30
283 -22 311 -24 495 -31 297 -12 819 -6 1045 11 25 2 86 6 135 10 166 12 259
20 345 30 266 33 385 48 460 60 14 3 43 7 65 10 22 3 63 10 90 15 28 5 67 12
87 14 21 3 57 10 80 15 24 5 59 12 78 15 33 5 210 41 255 52 11 3 31 7 45 10
14 3 33 7 42 10 10 3 30 7 45 10 143 26 642 167 933 264 263 88 353 121 475
171 11 4 106 43 210 85 172 70 231 95 390 169 231 106 574 283 775 399 74 43
151 87 170 98 328 187 1011 665 1277 894 11 11 41 35 65 54 55 45 250 213 307
265 147 134 218 202 411 395 119 118 258 262 310 319 52 57 100 109 105 115 6
6 51 58 100 116 50 58 92 107 95 110 3 3 25 30 50 60 25 30 47 57 50 60 8 8
66 83 74 98 9 15 -34 10 -174 -23 -22 -5 -210 -43 -240 -49 -14 -2 -72 -13
-130 -24 -58 -11 -148 -23 -200 -27 -52 -3 -117 -8 -145 -11 -86 -8 -157 -13
-425 -29 -52 -4 -115 -8 -140 -11 -51 -5 -400 -5 -475 1 -27 2 -90 6 -140 10
-49 3 -103 8 -120 11 -16 2 -93 6 -170 9 -133 3 -200 9 -273 21 -18 3 -83 7
-145 9 -124 5 -254 14 -277 20 -8 2 -46 6 -85 10 -38 3 -117 13 -175 21 -58 9
-118 18 -135 20 -30 3 -84 11 -140 20 -16 3 -47 7 -68 9 -21 2 -41 6 -45 9 -4
2 -34 7 -67 11 -32 3 -62 8 -65 10 -3 2 -30 6 -60 10 -123 15 -197 26 -255 40
-33 7 -85 16 -115 20 -30 3 -91 12 -135 20 -44 8 -95 17 -114 20 -19 3 -38 8
-43 11 -4 3 -16 7 -25 9 -43 8 -345 96 -408 118 -65 23 -108 36 -145 43 -31 6
-407 133 -480 162 -793 313 -1397 578 -1735 762 -27 15 -77 42 -110 60 -250
136 -478 277 -535 330 -18 16 -34 30 -37 30 -3 0 -35 22 -72 48 -36 27 -127
91 -201 144 -74 53 -200 151 -280 218 -80 67 -176 147 -215 178 -38 31 -72 59
-75 62 -3 4 -71 56 -151 116 -80 60 -167 127 -193 149 -130 109 -405 379 -551
540 -49 55 -140 152 -201 215 -203 211 -299 323 -435 506 -20 28 -43 57 -51
65 -56 58 -288 364 -288 379 0 7 -38 71 -84 144 -216 340 -373 656 -516 1039
-18 48 -35 87 -39 87 -3 0 -26 -15 -51 -33z"/>
</g>
</svg>
